<mxfile host="app.diagrams.net" modified="2023-10-03T14:56:54.338Z" agent="Mozilla/5.0 (Windows NT 10.0; Win64; x64) AppleWebKit/537.36 (KHTML, like Gecko) Chrome/117.0.0.0 Safari/537.36" etag="1BjigqXQoVLbGji1ZKZZ" version="22.0.2" type="google">
  <diagram name="Page-1" id="L8r9Zjeezmi3RW0B7Bdv">
    <mxGraphModel grid="1" page="1" gridSize="10" guides="1" tooltips="1" connect="1" arrows="1" fold="1" pageScale="1" pageWidth="850" pageHeight="1100" math="0" shadow="0">
      <root>
        <mxCell id="0" />
        <mxCell id="1" parent="0" />
        <mxCell id="__goKBwlj-ygq2IXHNIL-1" value="test *m" style="rounded=0;whiteSpace=wrap;html=1;fontSize=19;" vertex="1" parent="1">
          <mxGeometry x="170" y="100" width="109.0909090909091" height="49.3221064649636" as="geometry" />
        </mxCell>
        <mxCell id="__goKBwlj-ygq2IXHNIL-3" value="some mallocated entry space 1" style="swimlane;fontStyle=1;align=center;verticalAlign=top;childLayout=stackLayout;horizontal=1;startSize=26;horizontalStack=0;resizeParent=1;resizeParentMax=0;resizeLast=0;collapsible=1;marginBottom=0;whiteSpace=wrap;html=1;fontSize=17;" vertex="1" parent="1">
          <mxGeometry x="110" y="270" width="279" height="52" as="geometry">
            <mxRectangle x="500" y="320" width="180" height="30" as="alternateBounds" />
          </mxGeometry>
        </mxCell>
        <mxCell id="__goKBwlj-ygq2IXHNIL-6" value="+ a: test **&amp;nbsp;" style="text;strokeColor=none;fillColor=none;align=left;verticalAlign=top;spacingLeft=4;spacingRight=4;overflow=hidden;rotatable=0;points=[[0,0.5],[1,0.5]];portConstraint=eastwest;whiteSpace=wrap;html=1;fontSize=17;" vertex="1" parent="__goKBwlj-ygq2IXHNIL-3">
          <mxGeometry y="26" width="279" height="26" as="geometry" />
        </mxCell>
      </root>
    </mxGraphModel>
  </diagram>
</mxfile>
